<svg version="1" xmlns="http://www.w3.org/2000/svg" width="933.333" height="933.333" viewBox="0 0 700.000000 700.000000"><path d="M76 195v34h127v313h61V229h66v-68H76v34zM361 195v34h42.9c47.9 0 45.2-.4 57.1 7.5 8.5 5.7 17.8 14.9 23.4 23.4 4.2 6.3 9.5 18.1 11 24.3l.6 2.8H361v43h133.1l-.6 2.2c-1.4 5.1-8.9 18.7-13.6 24.5-10.4 13.2-27.6 24.1-44.3 28.3-13.2 3.3-11.8 3.9-33-14-10.5-8.8-19.2-16-19.5-16-.7 0-38.5 44.7-38.8 45.8-.1.4 11.2 10.2 25 21.9 13.9 11.6 51.4 43.2 83.5 70.2l58.3 49.1h46.5c25.5 0 46.4-.3 46.4-.8 0-.4-29.3-25.2-65-55.2-35.7-30-64.9-54.7-64.9-55-.1-.3 2.9-2.1 6.6-4 33.3-17.5 59.5-50.8 68.7-87.4l2.3-9.1 31.1-.3 31.2-.2v-43h-30.5c-23.6 0-30.6-.3-30.9-1.3-.2-.6-1.3-5.5-2.4-10.7-2.7-12.9-7.2-24.6-13.6-36.3l-5.4-9.7H614v-68H361v34z"/></svg>