<svg xmlns="http://www.w3.org/2000/svg" xmlns:xlink="http://www.w3.org/1999/xlink" viewBox="39.33234351 321.81314152 254 254"><defs><path d="M247.6 322.81c23.6 0 42.73 19.14 42.73 42.74v164.53c0 23.6-19.13 42.73-42.73 42.73H83.07c-23.6 0-42.74-19.13-42.74-42.73V365.55c0-23.6 19.14-42.74 42.74-42.74H247.6z" id="a"/><path d="M230.2 432.57c0 22.07-17.92 40-40 40-22.07 0-40-17.93-40-40 0-22.08 17.93-40 40-40 22.08 0 40 17.92 40 40z" id="b"/><path d="M136.42 376.49h44.39v114.46h-44.39V376.49z" id="c"/><path d="M170.33 380.38h91.75v24.38h-91.75v-24.38z" id="d"/><path d="M170.33 425.89h91.75v15.65h-91.75v-15.65z" id="e"/><path d="M178.32 450.59l80.16 67.53-14.1 16.75-80.17-67.54 14.11-16.74z" id="f"/><path d="M67.2 380.38h91.75v24.38H67.2v-24.38z" id="g"/><path d="M134.97 404.76v121.68h-21.89V404.76h21.89z" id="h"/><path d="M65.26 518.42h194.05v24.38H65.26v-24.38z" id="i"/></defs><use xlink:href="#a" fill="#fff" fill-opacity=".99"/><use xlink:href="#a" fill-opacity="0" stroke="#c1f8ca" stroke-width="0"/><use xlink:href="#b" fill="#c21352" fill-opacity="0"/><use xlink:href="#b" fill-opacity="0" stroke="#5c9c4c" stroke-width="20"/><use xlink:href="#c" fill="#fff"/><use xlink:href="#d" fill="#5c9c4c"/><use xlink:href="#e" fill="#5c9c4c"/><use xlink:href="#f" fill="#5c9c4c"/><use xlink:href="#g" fill="#282e6e"/><g><use xlink:href="#h" fill="#282e6e"/></g><g><use xlink:href="#i" fill="#fff"/></g></svg>