<svg style="position: absolute; width: 0; height: 0; overflow: hidden" version="1.1" xmlns="http://www.w3.org/2000/svg" xmlns:xlink="http://www.w3.org/1999/xlink">
    <defs>
        <symbol id="icon-home" viewBox="0 0 18 10">
            <title>Home</title>
            <path class="svg-icon icon-home" d="M16 9.2l-8-6.2-8 6.2v-2.5l8-6.2 8 6.2zM14 9v6h-4v-4h-4v4h-4v-6l6-4.5z"/>
        </symbol>
        <symbol id="icon-about" viewBox="0 0 18 12" >
            <title>About</title>
            <path class="svg-icon icon-about" d="M12 12v-0.8c1.1-0.6 2-2.2 2-3.7 0-2.5 0-4.5-3-4.5s-3 2-3 4.5c0 1.5 0.9 3.1 2 3.7v0.8c-3.4 0.3-6 1.9-6 4h14c0-2-2.6-3.7-6-4z"/>
            <path class="svg-icon icon-about" d="M5.1 12.4c0.9-0.6 1.9-1 3.1-1.3-0.2-0.3-0.4-0.6-0.6-0.9-0.5-0.9-0.7-1.8-0.7-2.7 0-1.3 0-2.6 0.5-3.7 0.5-1 1.3-1.6 2.5-1.9-0.3-1.2-1-2-2.8-2-3 0-3 2-3 4.5 0 1.5 0.9 3.1 2 3.7v0.8c-3.4 0.3-6 1.9-6 4h4.4c0.2-0.2 0.5-0.4 0.8-0.6z"/>
        </symbol>
        <symbol id="icon-research" viewBox="0 0 18 12">
            <title>Research</title>
            <path class="svg-icon icon-research" d="M2 14h14v2h-16v-16h2zM4.5 13c-0.8 0-1.5-0.7-1.5-1.5s0.7-1.5 1.5-1.5c0 0 0.1 0 0.1 0l1.6-2.7c-0.2-0.2-0.2-0.5-0.2-0.8 0-0.8 0.7-1.5 1.5-1.5s1.5 0.7 1.5 1.5c0 0.3-0.1 0.6-0.2 0.8l1.6 2.7c0 0 0.1 0 0.1 0 0 0 0.1 0 0.1 0l2.7-4.7c-0.2-0.2-0.3-0.5-0.3-0.8 0-0.8 0.7-1.5 1.5-1.5s1.5 0.7 1.5 1.5c0 0.8-0.7 1.5-1.5 1.5 0 0-0.1 0-0.1 0l-2.7 4.7c0.2 0.2 0.3 0.5 0.3 0.8 0 0.8-0.7 1.5-1.5 1.5s-1.5-0.7-1.5-1.5c0-0.3 0.1-0.6 0.2-0.8l-1.6-2.7c0 0-0.1 0-0.1 0s-0.1 0-0.1 0l-1.6 2.7c0.2 0.2 0.2 0.5 0.2 0.8 0 0.8-0.7 1.5-1.5 1.5z"/>
        </symbol>
        <symbol id="icon-contact" viewBox="0 0 18 12">
            <title>Contact</title>
            <path class="svg-icon icon-contact" d="M17 14.1c0 0.7 0.4 1.3 1 1.6v0.2c-0.2 0-0.3 0-0.5 0-1.1 0-2-0.4-2.7-1.2-0.4 0.1-0.8 0.2-1.3 0.2-2.5 0-4.5-1.8-4.5-4s2-4 4.5-4c2.5 0 4.5 1.8 4.5 4 0 0.9-0.3 1.7-0.8 2.3-0.1 0.2-0.2 0.5-0.2 0.8zM8 0c4.4 0 7.9 2.8 8 6.3-0.8-0.3-1.6-0.5-2.5-0.5-1.5 0-2.9 0.5-4 1.5-1.1 1-1.7 2.3-1.7 3.7 0 0.7 0.1 1.4 0.4 2-0.1 0-0.2 0-0.2 0-0.4 0-0.8 0-1.2-0.1-1.7 1.7-3.8 2-5.8 2.1v-0.4c1.1-0.5 2-1.5 2-2.6 0-0.2 0-0.3 0-0.4-1.8-1.2-3-3-3-5.1 0-3.6 3.6-6.5 8-6.5z"/>
        </symbol>
        <symbol id="icon-more" viewBox="0 0 18 12">
            <title>More</title>
            <path class="svg-icon icon-more" d="M16 5l-8-4-8 4 8 4 8-4zM8 2.3l5.3 2.7-5.3 2.7-5.3-2.7 5.3-2.7zM14.4 7.2l1.6 0.8-8 4-8-4 1.6-0.8 6.4 3.2zM14.4 10.2l1.6 0.8-8 4-8-4 1.6-0.8 6.4 3.2z"/>
        </symbol>
        <symbol id="icon-press" viewBox="0 0 18 12">
            <title>Press</title>
            <path class="svg-icon icon-press" d="M0 2v12h16v-12h-16zM3 13h-2v-2h2v2zM3 9h-2v-2h2v2zM3 5h-2v-2h2v2zM12 13h-8v-10h8v10zM15 13h-2v-2h2v2zM15 9h-2v-2h2v2zM15 5h-2v-2h2v2zM6 5v6l4-3z"/>
        </symbol>
        <symbol id="icon-performance" viewBox="0 0 18 12">
            <title>Performance</title>
            <path class="svg-icon icon-performance" d="M4 3l-2-2h-1v1l2 2zM5 0h1v2h-1zM9 5h2v1h-2zM10 2v-1h-1l-2 2 1 1zM0 5h2v1h-2zM5 9h1v2h-1zM1 9v1h1l2-2-1-1zM15.8 13.8l-9.9-9.9c-0.3-0.3-0.8-0.3-1.1 0l-0.9 0.9c-0.3 0.3-0.3 0.8 0 1.1l9.9 9.9c0.3 0.3 0.8 0.3 1.1 0l0.9-0.9c0.3-0.3 0.3-0.8 0-1.1zM7.5 8.5l-3-3 1-1 3 3-1 1z"/>
        </symbol>
        <symbol id="icon-philosophy" viewBox="0 0 18 12">
            <title>Philosophy</title>
            <path class="svg-icon icon-philosophy" d="M4 3l-2-2h-1v1l2 2zM5 0h1v2h-1zM9 5h2v1h-2zM10 2v-1h-1l-2 2 1 1zM0 5h2v1h-2zM5 9h1v2h-1zM1 9v1h1l2-2-1-1zM15.8 13.8l-9.9-9.9c-0.3-0.3-0.8-0.3-1.1 0l-0.9 0.9c-0.3 0.3-0.3 0.8 0 1.1l9.9 9.9c0.3 0.3 0.8 0.3 1.1 0l0.9-0.9c0.3-0.3 0.3-0.8 0-1.1zM7.5 8.5l-3-3 1-1 3 3-1 1z"/>
        </symbol>
        <symbol id="icon-road" viewBox="0 0 18 12">
            <title>Road</title>
            <path class="svg-icon icon-road" d="M11 16h5L12 0H9l.5 4h-3L7 0H4L0 16h5l.5-4h5l.5 4zm-5.25-6l.5-4h3.5l.5 4h-4.5z"/>
        </symbol>
        <symbol id="icon-target" viewBox="0 0 18 12">
            <title>Target</title>
            <path class="svg-icon icon-target" d="M16 7h-1.577C13.991 4.215 11.785 2.009 9 1.577V0H7v1.577C4.215 2.009 2.009 4.215 1.577 7H0v2h1.577c.432 2.785 2.638 4.991 5.423 5.423V16h2v-1.577c2.785-.432 4.991-2.638 5.423-5.423H16V7zm-3.612 0h-1.559C10.528 6.148 9.852 5.472 9 5.171V3.612c1.68.383 3.005 1.708 3.388 3.388zM8 9c-.552 0-1-.448-1-1s.448-1 1-1 1 .448 1 1-.448 1-1 1zM7 3.612v1.559c-.852.301-1.528.977-1.829 1.829H3.612C3.995 5.32 5.32 3.995 7 3.612zM3.612 9h1.559c.301.852.977 1.528 1.829 1.829v1.559C5.32 12.005 3.995 10.68 3.612 9zM9 12.388v-1.559c.852-.301 1.528-.977 1.829-1.829h1.559c-.383 1.68-1.708 3.005-3.388 3.388z"/>
        </symbol>
        <symbol id="icon-shield" viewBox="0 0 18 12">
            <title>Shield</title>
            <path class="svg-icon icon-shield" d="M15 0L8 2 1 0S.93.808 1 2l7 2.189L15 2c.07-1.192 0-2 0-2zM1.128 3.049C1.503 6.966 2.901 13.553 8 16c5.099-2.448 6.497-9.034 6.872-12.951L8 5.633 1.128 3.049z"/>
        </symbol>
        <symbol id="icon-office" viewBox="0 0 18 12">
            <title>Office</title>
            <path class="svg-icon icon-office" d="M0 16h8V0H0v16zM5 2h2v2H5V2zm0 4h2v2H5V6zm0 4h2v2H5v-2zM1 2h2v2H1V2zm0 4h2v2H1V6zm0 4h2v2H1v-2zm8-5h7v1H9zm0 11h2v-4h3v4h2V7H9z"/>
        </symbol>
        
    </defs>
</svg>